<?xml version="1.0" standalone="no"?>
<!DOCTYPE svg PUBLIC "-//W3C//DTD SVG 20010904//EN"
 "http://www.w3.org/TR/2001/REC-SVG-20010904/DTD/svg10.dtd">
<svg version="1.0" xmlns="http://www.w3.org/2000/svg"
 width="1920.000000pt" height="1080.000000pt" viewBox="0 0 1920.000000 1080.000000"
 preserveAspectRatio="xMidYMid meet">

<g transform="translate(0.000000,1080.000000) scale(0.100000,-0.100000)"
fill="#000000" stroke="none">
<path d="M9125 10784 c-22 -2 -96 -8 -165 -14 -377 -32 -814 -124 -1205 -255
-1062 -354 -1993 -1037 -2653 -1945 -306 -421 -555 -893 -724 -1375 -272 -772
-365 -1598 -272 -2410 174 -1529 992 -2906 2254 -3797 255 -180 465 -303 755
-444 1196 -580 2569 -698 3845 -329 913 264 1710 743 2375 1426 828 851 1348
1940 1489 3119 29 243 39 459 33 750 -8 378 -33 613 -107 980 -176 873 -581
1703 -1170 2400 -135 159 -431 459 -580 587 -847 728 -1851 1163 -2970 1289
-136 15 -796 28 -905 18z m-247 -2854 c575 -45 1057 -420 1242 -966 l34 -102
39 25 c166 105 419 198 648 239 155 28 460 26 626 -4 670 -120 1221 -598 1434
-1243 152 -462 121 -945 -87 -1379 -254 -529 -739 -903 -1325 -1022 l-114 -23
-2120 0 -2120 0 -95 24 c-493 123 -873 469 -1029 936 -53 159 -73 286 -72 460
1 229 42 409 141 611 123 252 335 480 575 617 112 65 270 125 405 154 162 36
404 38 568 5 258 -52 469 -158 682 -342 120 -105 185 -120 278 -65 80 48 104
170 50 253 -33 50 -150 151 -273 237 -227 159 -557 279 -825 300 -41 3 -99 8
-128 11 l-54 6 7 51 c41 324 230 667 484 879 242 202 499 310 798 337 54 4
100 9 103 9 3 1 60 -3 128 -8z"/>
</g>
</svg>
